<?xml version="1.0" encoding="UTF-8"?>
<svg version="1.1" xmlns="http://www.w3.org/2000/svg" width="64" height="64">
<path d="M0 0 C-0.41835894 2.9285126 -0.8577907 4.7952186 -2.5625 7.25 C-5.04172623 11.99286756 -4.29973481 16.70203314 -3.625 21.875 C-1.21674967 25.02425043 1.55069413 25.72130326 5.3203125 26.69921875 C9.66072297 27.18640768 12.14807284 25.99474799 16 24 C16.66 23.34 17.32 22.68 18 22 C19.32 22 20.64 22 22 22 C22.45405627 28.35678777 21.72182566 32.73285492 18 38 C13.59131107 42.72210284 9.27896551 45.66309315 2.73046875 46.3359375 C-5.54371997 46.4271634 -11.58428015 46.17810264 -17.7421875 40.3515625 C-23.67397269 33.85214236 -24.46296445 28.13938134 -24.30859375 19.44921875 C-23.72339005 12.9082711 -21.35547257 8.99937235 -16.5625 4.625 C-11.02999914 0.31152475 -6.87835081 -0.23316443 0 0 Z " fill="#FECD29" transform="translate(33,7)"/>
<path d="M0 0 C1.91329102 -0.01836914 1.91329102 -0.01836914 3.86523438 -0.03710938 C5.09435547 -0.03904297 6.32347656 -0.04097656 7.58984375 -0.04296875 C8.71124756 -0.04707764 9.83265137 -0.05118652 10.98803711 -0.05541992 C14.07683614 0.18863273 16.27435709 0.87610154 19.0625 2.1875 C18.7325 3.1775 18.4025 4.1675 18.0625 5.1875 C12.68167008 7.37373317 5.8168152 6.37213259 0.125 6.375 C-1.15052734 6.38724609 -2.42605469 6.39949219 -3.74023438 6.41210938 C-5.58391602 6.41500977 -5.58391602 6.41500977 -7.46484375 6.41796875 C-9.14694946 6.42413208 -9.14694946 6.42413208 -10.86303711 6.43041992 C-13.95183614 6.18636727 -16.14935709 5.49889846 -18.9375 4.1875 C-18.6075 3.1975 -18.2775 2.2075 -17.9375 1.1875 C-12.55667008 -0.99873317 -5.6918152 0.00286741 0 0 Z " fill="#000000" transform="translate(31.9375,57.8125)"/>
<path d="M0 0 C1.32 0 2.64 0 4 0 C3.69988025 6.00239505 0.94743968 9.71446942 -3 14 C-7.9820885 18.17968483 -12.26986902 19.1260409 -18.6875 19.0625 C-20.45673828 19.04896484 -20.45673828 19.04896484 -22.26171875 19.03515625 C-23.16535156 19.02355469 -24.06898437 19.01195313 -25 19 C-24.125 15.125 -24.125 15.125 -23 14 C-21.64746171 13.89345431 -20.29266631 13.81508517 -18.9375 13.75 C-13.68206533 13.19108869 -9.98370187 11.4699475 -6 8 C-4.33356957 5.92177268 -2.83907507 3.82923416 -1.421875 1.57421875 C-0.95265625 1.05472656 -0.4834375 0.53523438 0 0 Z " fill="#DBB023" transform="translate(51,34)"/>
<path d="M0 0 C-0.33 2.31 -0.66 4.62 -1 7 C-1.928125 7.12375 -1.928125 7.12375 -2.875 7.25 C-5.11681553 7.78570011 -5.11681553 7.78570011 -6 9.6875 C-6.33 10.450625 -6.66 11.21375 -7 12 C-7.99 13.3303125 -7.99 13.3303125 -9 14.6875 C-11.42594687 18.7054745 -12.22620391 22.41831265 -13 27 C-14.32 27.33 -15.64 27.66 -17 28 C-17.44926967 20.51217209 -17.70498542 14.16325575 -13 8 C-9.70596774 4.50301788 -5.16001227 0 0 0 Z " fill="#FFDC6A" transform="translate(26,7)"/>
<path d="M0 0 C0.99 0 1.98 0 3 0 C3 0.99 3 1.98 3 3 C3.66 3 4.32 3 5 3 C4.88541307 4.43836751 4.75790884 5.87570966 4.625 7.3125 C4.55539063 8.11300781 4.48578125 8.91351563 4.4140625 9.73828125 C4 12 4 12 2 15 C1.01 15 0.02 15 -1 15 C-1.02703381 13.06257659 -1.04641125 11.12504521 -1.0625 9.1875 C-1.07410156 8.10855469 -1.08570313 7.02960937 -1.09765625 5.91796875 C-1 3 -1 3 0 0 Z " fill="#FFDC65" transform="translate(10,20)"/>
<path d="M0 0 C2.125 0.375 2.125 0.375 4 1 C4.625 2.875 4.625 2.875 5 5 C4.34 5.66 3.68 6.32 3 7 C0.875 6.625 0.875 6.625 -1 6 C-1.625 4.125 -1.625 4.125 -2 2 C-1.34 1.34 -0.68 0.68 0 0 Z " fill="#FFA702" transform="translate(21,32)"/>
<path d="M0 0 C-1.36944102 2.94956528 -2.87830409 5.52468811 -5 8 C-5.66 8 -6.32 8 -7 8 C-6.62952882 5.25851328 -6.31412056 3.41406801 -4.625 1.1875 C-3 0 -3 0 0 0 Z " fill="#FFFBEF" transform="translate(21,15)"/>
<path d="M0 0 C1.98 0.495 1.98 0.495 4 1 C3.67 2.32 3.34 3.64 3 5 C1.68 4.67 0.36 4.34 -1 4 C-0.67 2.68 -0.34 1.36 0 0 Z " fill="#FFA904" transform="translate(32,37)"/>
</svg>
