<?xml version="1.0" encoding="UTF-8" standalone="no"?>
<!-- Created with Inkscape (http://www.inkscape.org/) -->

<svg
   width="82.548157mm"
   height="42.136356mm"
   viewBox="0 0 82.548157 42.136356"
   version="1.1"
   id="svg1"
   xmlns="http://www.w3.org/2000/svg"
   xmlns:svg="http://www.w3.org/2000/svg">
  <defs
     id="defs1">
    <filter
       style="color-interpolation-filters:sRGB"
       id="filter6"
       x="0"
       y="0"
       width="1"
       height="1">
      <feConvolveMatrix
         order="3 3"
         kernelMatrix="0 -0.15 0 -0.15 1.6 -0.15 0 -0.15 0"
         divisor="1"
         in="SourceGraphic"
         targetX="1"
         targetY="1"
         id="feConvolveMatrix6"
         result="fbSourceGraphic" />
      <feColorMatrix
         result="fbSourceGraphicAlpha"
         in="fbSourceGraphic"
         values="0 0 0 -1 0 0 0 0 -1 0 0 0 0 -1 0 0 0 0 1 0"
         id="feColorMatrix39" />
      <feColorMatrix
         id="feColorMatrix40"
         values="-1 0 0 0 1 0 -1 0 0 1 0 0 -1 0 1 -0.21 -0.72 -0.07 2 0 "
         result="fbSourceGraphic"
         in="fbSourceGraphic" />
      <feColorMatrix
         result="fbSourceGraphicAlpha"
         in="fbSourceGraphic"
         values="0 0 0 -1 0 0 0 0 -1 0 0 0 0 -1 0 0 0 0 1 0"
         id="feColorMatrix41" />
      <feColorMatrix
         id="feColorMatrix42"
         values="-1 0 0 0 1 0 -1 0 0 1 0 0 -1 0 1 -0.21 -0.72 -0.07 2 0 "
         result="fbSourceGraphic"
         in="fbSourceGraphic" />
      <feColorMatrix
         result="fbSourceGraphicAlpha"
         in="fbSourceGraphic"
         values="0 0 0 -1 0 0 0 0 -1 0 0 0 0 -1 0 0 0 0 1 0"
         id="feColorMatrix43" />
      <feColorMatrix
         id="feColorMatrix44"
         values="-1 0 0 0 1 0 -1 0 0 1 0 0 -1 0 1 -0.21 -0.72 -0.07 2 0 "
         result="color2"
         in="fbSourceGraphic" />
    </filter>
  </defs>
  <g
     id="layer1"
     transform="translate(-58.056779,-102.56295)">
    <path
       id="text1"
       style="font-style:italic;font-weight:bold;font-size:38.1px;font-family:Sans;-inkscape-font-specification:'Sans Bold Italic';stroke-width:0.296278;filter:url(#filter6)"
       d="m 66.395052,144.56323 q -2.587741,0 -4.74419,-0.45581 -2.108529,-0.45581 -3.594083,-1.21548 v -5.08982 q 2.108529,0.9496 4.169136,1.48136 2.060607,0.53178 4.217058,0.53178 2.396055,0 3.977451,-0.72169 1.581396,-0.72169 1.581396,-2.24105 0,-1.55733 -1.150105,-2.43095 -1.150107,-0.91161 -2.971109,-1.97515 -1.437633,-0.83564 -2.779425,-1.86121 -1.34179,-1.02556 -2.204371,-2.39297 -0.862579,-1.40541 -0.862579,-3.26661 0,-2.43095 1.437633,-4.25417 1.437633,-1.8612 4.073294,-2.92475 2.683582,-1.06354 6.229744,-1.06354 2.683585,0 4.935875,0.45581 2.252289,0.45579 4.360819,1.36741 l -2.539813,4.33015 q -3.642007,-1.36742 -6.756881,-1.36742 -1.916844,0 -3.162794,0.83564 -1.245948,0.79766 -1.245948,2.20305 0,1.44338 1.102185,2.31701 1.102186,0.83566 3.114872,1.8992 2.827348,1.48135 4.21706,3.26659 1.437633,1.78523 1.437633,4.17821 0,2.84878 -1.77308,4.70998 -1.725162,1.86121 -4.648351,2.77281 -2.875265,0.91162 -6.421427,0.91162 z m 10.858982,-0.0769 23.658846,-41.92338 h 11.51314 l 4.55463,41.92338 h -9.17255 l -0.7591,-9.98175 H 92.436184 l -5.313751,9.98175 z M 96.29498,127.04759 h 10.31121 l -0.82236,-10.8038 q -0.12653,-1.70274 -0.25304,-3.46422 -0.12653,-1.7615 -0.0633,-3.5817 h -0.12651 q -0.6326,1.58533 -1.3917,3.17067 -0.75911,1.52663 -1.708,3.34681 z m 22.97942,17.65171 -2.50472,-25.10349 h 5.81742 l 1.00997,15.11836 q 0.0808,1.08992 0.0404,2.46112 0,1.37119 -0.0808,2.3908 h 0.1616 q 0.4444,-1.16024 0.96957,-2.3908 0.56559,-1.26573 1.21197,-2.46112 l 8.48372,-15.11836 h 6.2214 l -14.74552,25.10349 z" />
  </g>
</svg>
