<?xml version="1.0" encoding="UTF-8" standalone="no"?>
<!-- Created with Inkscape (http://www.inkscape.org/) -->

<svg
   width="6.3589482in"
   height="1.1791222in"
   viewBox="0 0 161.51729 29.949704"
   version="1.1"
   id="svg1"
   xmlns="http://www.w3.org/2000/svg"
   xmlns:svg="http://www.w3.org/2000/svg">
  <defs
     id="defs1">
    <filter
       style="color-interpolation-filters:sRGB"
       id="filter10"
       x="-0.021121741"
       y="-0.13333333"
       width="1.0459927"
       height="1.2875">
      <feColorMatrix
         type="luminanceToAlpha"
         result="result2"
         id="feColorMatrix9" />
      <feComposite
         in2="SourceGraphic"
         operator="arithmetic"
         in="result2"
         k3="2"
         result="result4"
         id="feComposite9"
         k1="0"
         k2="0"
         k4="0" />
      <feBlend
         in="result4"
         mode="multiply"
         result="result3"
         in2="result2"
         id="feBlend9" />
      <feComposite
         in2="SourceGraphic"
         operator="in"
         in="result3"
         id="feComposite10"
         result="fbSourceGraphic" />
      <feColorMatrix
         result="fbSourceGraphicAlpha"
         in="fbSourceGraphic"
         values="0 0 0 -1 0 0 0 0 -1 0 0 0 0 -1 0 0 0 0 1 0"
         id="feColorMatrix32" />
      <feGaussianBlur
         id="feGaussianBlur32"
         stdDeviation="4.042 5"
         result="result3"
         in="fbSourceGraphic" />
      <feColorMatrix
         id="feColorMatrix33"
         values="1 0 0 0 0 0 1 0 0 0 0 0 1 0 0 0 0 0 50 0 "
         result="result7" />
      <feComposite
         id="feComposite33"
         operator="in"
         in2="fbSourceGraphic"
         result="result9" />
      <feComposite
         id="feComposite34"
         in2="result7"
         operator="arithmetic"
         in="result9"
         k1="0.5"
         k3="0.5"
         result="result1"
         k2="0"
         k4="0" />
      <feBlend
         id="feBlend34"
         in2="result1"
         result="result5"
         mode="screen"
         in="fbSourceGraphic" />
      <feBlend
         id="feBlend35"
         in2="result5"
         mode="darken"
         in="result5"
         result="result6" />
      <feComposite
         id="feComposite35"
         in2="fbSourceGraphic"
         operator="in"
         result="fbSourceGraphic" />
      <feColorMatrix
         result="fbSourceGraphicAlpha"
         in="fbSourceGraphic"
         values="0 0 0 -1 0 0 0 0 -1 0 0 0 0 -1 0 0 0 0 1 0"
         id="feColorMatrix35" />
      <feOffset
         id="feOffset35"
         dy="3"
         dx="3"
         in="fbSourceGraphic" />
      <feGaussianBlur
         id="feGaussianBlur35"
         stdDeviation="3"
         result="blur" />
      <feFlood
         id="feFlood35"
         flood-color="rgb(0,0,0)"
         flood-opacity="1"
         result="flood" />
      <feComposite
         id="feComposite36"
         in="flood"
         in2="fbSourceGraphic"
         operator="in"
         result="composite" />
      <feBlend
         id="feBlend36"
         in="blur"
         in2="composite"
         mode="normal" />
    </filter>
  </defs>
  <g
     id="layer1"
     style="display:inline"
     transform="translate(-51.48634,-78.318222)">
    <g
       id="text1"
       style="font-style:italic;font-weight:bold;font-size:144px;font-family:Sans;-inkscape-font-specification:'Sans Bold Italic';text-align:center;letter-spacing:-2.82891px;text-anchor:middle;white-space:pre;stroke-width:1.01291;filter:url(#filter10)"
       transform="matrix(0.19241511,0.00210289,-0.00255116,0.15204781,-5.3500536,36.370493)"
       aria-label="SortAlgoView">
      <path
         d="m 343.40179,401.79601 q -7.776,0 -14.256,-1.728 -6.336,-1.728 -10.8,-4.608 v -19.296 q 6.336,3.6 12.528,5.616 6.192,2.016 12.672,2.016 7.2,0 11.952,-2.736 4.752,-2.736 4.752,-8.496 0,-5.904 -3.456,-9.216 -3.456,-3.456 -8.928,-7.488 -4.32,-3.168 -8.352,-7.056 -4.032,-3.888 -6.624,-9.072 -2.592,-5.328 -2.592,-12.384 0,-9.216 4.32,-16.128 4.32,-7.056 12.24,-11.088 8.064,-4.032 18.72,-4.032 8.064,0 14.832,1.728 6.768,1.728 13.104,5.184 l -7.632,16.416 q -10.944,-5.184 -20.304,-5.184 -5.76,0 -9.504,3.168 -3.744,3.024 -3.744,8.352 0,5.472 3.312,8.784 3.312,3.168 9.36,7.2 8.496,5.616 12.672,12.384 4.32,6.768 4.32,15.84 0,10.8 -5.328,17.856 -5.184,7.056 -13.968,10.512 -8.64,3.456 -19.296,3.456 z m 81.98718,0 q -8.784,0 -15.696,-3.6 -6.768,-3.744 -10.656,-10.512 -3.744,-6.768 -3.744,-16.128 0,-10.368 2.592,-19.584 2.592,-9.36 7.776,-16.416 5.184,-7.2 12.96,-11.232 7.92,-4.032 18.432,-4.032 13.68,0 21.744,8.208 8.064,8.208 8.064,22.896 0,9.936 -2.448,19.008 -2.448,9.072 -7.632,16.128 -5.04,7.056 -12.96,11.232 -7.776,4.032 -18.432,4.032 z m 1.728,-17.28 q 5.904,0 9.936,-4.752 4.176,-4.752 6.336,-12.24 2.16,-7.632 2.16,-16.128 0,-5.904 -2.304,-9.792 -2.16,-4.032 -7.776,-4.032 -4.752,0 -8.352,3.312 -3.6,3.168 -5.904,8.352 -2.304,5.184 -3.456,11.088 -1.152,5.904 -1.152,11.232 0,12.96 10.512,12.96 z m 45.84296,15.84 16.704,-78.624 h 16.128 l -1.44,14.544 h 0.72 q 4.752,-7.488 10.8,-11.664 6.048,-4.32 13.68,-4.32 1.728,0 3.6,0.288 2.016,0.144 3.168,0.432 l -4.608,20.448 q -1.152,-0.432 -3.024,-0.72 -1.872,-0.432 -4.032,-0.432 -7.92,0 -14.256,6.336 -6.192,6.192 -8.784,18.576 l -7.488,35.136 z m 84.00303,1.44 q -9.216,0 -14.832,-3.888 -5.616,-4.032 -5.616,-14.256 0,-3.6 0.864,-7.92 l 8.064,-37.872 h -10.656 l 2.016,-10.368 13.824,-5.904 9.216,-16.56 h 13.68 l -3.456,16.704 h 19.872 l -3.456,16.128 h -19.872 l -8.064,37.872 q -0.432,2.16 -0.432,3.744 0,2.736 1.728,4.032 1.728,1.152 4.464,1.152 2.88,0 5.472,-0.576 2.736,-0.72 5.904,-1.872 v 15.84 q -3.312,1.584 -8.064,2.592 -4.752,1.152 -10.656,1.152 z"
         id="path56" />
      <path
         style="letter-spacing:-13.5307px;word-spacing:0px"
         d="m 575.73402,400.35601 53.856,-102.816 h 26.208 l 10.368,102.816 h -20.88 l -1.728,-24.48 h -33.264 l -12.096,24.48 z m 43.344,-42.768 h 23.472 l -1.872,-26.496 q -0.288,-4.176 -0.576,-8.496 -0.288,-4.32 -0.144,-8.784 h -0.288 q -1.44,3.888 -3.168,7.776 -1.728,3.744 -3.888,8.208 z"
         id="path57" />
      <path
         style="letter-spacing:-13.5307px;word-spacing:0px;direction:rtl"
         d="m 663.86736,400.35601 23.184,-109.44 h 21.168 l -23.184,109.44 z m 54.14942,34.56 q -8.784,0 -14.544,-1.44 -5.76,-1.296 -11.088,-3.6 v -18.432 q 5.472,2.88 11.52,4.464 6.192,1.584 12.96,1.584 7.344,0 11.952,-3.456 4.752,-3.312 6.624,-10.512 l 0.576,-2.16 q 0.72,-2.592 1.728,-5.904 1.152,-3.456 1.728,-5.616 h -0.576 q -3.744,4.896 -8.64,8.496 -4.896,3.456 -12.24,3.456 -5.616,0 -10.512,-3.024 -4.752,-3.024 -7.776,-9.216 -2.88,-6.336 -2.88,-16.272 0,-9.648 2.592,-19.008 2.592,-9.36 7.344,-16.992 4.752,-7.776 11.376,-12.384 6.624,-4.608 14.688,-4.608 7.632,0 11.952,3.168 4.464,3.024 7.92,8.352 h 0.576 l 4.032,-10.08 h 16.272 l -17.136,80.496 q -2.592,12.384 -8.064,19.44 -5.328,7.2 -12.96,10.224 -7.632,3.024 -17.424,3.024 z m 10.224,-50.256 q 4.464,0 7.776,-3.312 3.456,-3.456 5.76,-8.784 2.448,-5.328 3.6,-11.376 1.296,-6.048 1.296,-11.376 0,-5.616 -2.592,-8.928 -2.592,-3.456 -7.056,-3.456 -4.032,0 -7.488,3.168 -3.312,3.024 -5.904,8.064 -2.448,5.04 -3.888,11.232 -1.44,6.192 -1.44,12.384 0,6.192 2.592,9.36 2.736,3.024 7.344,3.024 z m 70.70928,17.136 q -8.784,0 -15.696,-3.6 -6.768,-3.744 -10.656,-10.512 -3.744,-6.768 -3.744,-16.128 0,-10.368 2.592,-19.584 2.592,-9.36 7.776,-16.416 5.184,-7.2 12.96,-11.232 7.92,-4.032 18.432,-4.032 13.68,0 21.744,8.208 8.064,8.208 8.064,22.896 0,9.936 -2.448,19.008 -2.448,9.072 -7.632,16.128 -5.04,7.056 -12.96,11.232 -7.776,4.032 -18.432,4.032 z m 1.728,-17.28 q 5.904,0 9.936,-4.752 4.176,-4.752 6.336,-12.24 2.16,-7.632 2.16,-16.128 0,-5.904 -2.304,-9.792 -2.16,-4.032 -7.776,-4.032 -4.752,0 -8.352,3.312 -3.6,3.168 -5.904,8.352 -2.304,5.184 -3.456,11.088 -1.152,5.904 -1.152,11.232 0,12.96 10.512,12.96 z m 54.4372,15.84 -8.928,-102.816 h 20.736 l 3.6,61.92 q 0.288,4.464 0.144,10.08 0,5.616 -0.288,9.792 h 0.576 q 1.584,-4.752 3.456,-9.792 2.016,-5.184 4.32,-10.08 l 30.24,-61.92 h 22.176 l -52.56,102.816 z m 82.80532,-88.416 q -4.464,0 -7.632,-1.872 -3.024,-2.016 -3.024,-6.768 0,-6.048 3.312,-9.216 3.456,-3.168 9.504,-3.168 4.176,0 7.344,1.872 3.168,1.872 3.168,6.624 0,5.616 -3.168,9.072 -3.024,3.456 -9.504,3.456 z m -30.672,88.416 16.704,-78.624 h 21.168 l -16.704,78.624 z m 64.08543,1.44 q -13.824,0 -22.464,-7.488 -8.64,-7.632 -8.64,-22.896 0,-9.936 2.736,-19.008 2.88,-9.216 8.352,-16.416 5.616,-7.2 13.824,-11.376 8.208,-4.32 19.008,-4.32 13.248,0 19.72799,6.048 6.624,6.048 6.624,15.408 0,12.384 -11.23199,19.872 -11.088,7.488 -33.984,7.488 h -3.6 q -0.144,0.864 -0.144,1.584 0,0.576 0,1.296 0,6.336 3.6,10.08 3.744,3.744 10.368,3.744 6.192,0 11.232,-1.44 5.04,-1.44 11.952,-4.608 v 15.984 q -6.192,3.024 -12.528,4.608 -6.336,1.44 -14.832,1.44 z m -4.176,-46.944 q 12.24,0 17.568,-3.744 5.472,-3.888 5.472,-8.928 0,-6.624 -7.344,-6.624 -3.888,0 -7.776,2.448 -3.888,2.448 -6.912,6.768 -2.88,4.32 -4.176,10.08 z m 42.91709,45.504 -3.6,-78.624 h 19.728 l 0.288,34.848 q 0,5.76 -0.144,11.52 0,5.616 -0.576,12.24 h 0.576 q 1.008,-3.6 2.592,-7.92 1.584,-4.464 2.88,-8.064 1.44,-3.6 2.016,-4.896 l 16.272,-37.728 h 23.04 v 37.728 q 0,4.896 -0.144,9.936 0,5.04 -0.576,10.944 h 0.72 q 1.008,-3.312 2.448,-7.776 1.584,-4.464 3.168,-8.784 1.584,-4.464 2.736,-7.2 l 15.408,-34.848 h 21.6 l -37.296,78.624 h -23.184 l -0.432,-36.576 q 0,-3.024 0,-7.2 0.144,-4.32 0.288,-8.784 0.288,-4.464 0.432,-7.92 h -0.864 q -1.152,3.456 -2.736,7.776 -1.44,4.176 -2.88,8.064 -1.44,3.888 -2.592,6.624 l -16.416,38.016 z"
         id="path58" />
    </g>
  </g>
</svg>
